<svg xmlns="http://www.w3.org/2000/svg" viewBox="0 0 1642 400">
  <g transform="translate(-46.15 -43.69) scale(0.9846)">
    <rect x="130" y="122" width="300" height="192" rx="26" fill="#f2a65a" transform="rotate(10 280 218)"/>
    <g transform="rotate(-8 235 295)">
      <rect x="85" y="199" width="300" height="192" rx="26" fill="#d4621a"/>
      <rect x="118" y="234" width="54" height="42" rx="9" fill="#ffffff" opacity="0.95"/>
      <rect x="118" y="344" width="112" height="14" rx="7" fill="#ffffff" opacity="0.9"/>
      <rect x="244" y="344" width="54" height="14" rx="7" fill="#ffffff" opacity="0.9"/>
    </g>
  </g>
  <path d="M495.65 254.60Q476.15 254.60 464.75 243.72Q453.35 232.85 453.35 212.60L453.35 187.40Q453.35 167.15 464.75 156.28Q476.15 145.40 495.65 145.40Q515 145.40 525.57 155.98Q536.15 166.55 536.15 185L536.15 185.90L516.65 185.90L516.65 184.40Q516.65 175.10 511.47 169.10Q506.30 163.10 495.65 163.10Q485.15 163.10 479.15 169.55Q473.15 176 473.15 187.10L473.15 212.90Q473.15 223.85 479.15 230.38Q485.15 236.90 495.65 236.90Q506.30 236.90 511.47 230.82Q516.65 224.75 516.65 215.60L516.65 212.90L536.15 212.90L536.15 215Q536.15 233.45 525.57 244.03Q515 254.60 495.65 254.60M568.85 252.50L549.95 252.50L549.95 178.10L568.55 178.10L568.55 186.50L571.25 186.50Q572.90 182 576.72 179.90Q580.55 177.80 585.65 177.80L594.65 177.80L594.65 194.60L585.35 194.60Q578.15 194.60 573.50 198.43Q568.85 202.25 568.85 210.20L568.85 252.50M637.55 254.60Q626.45 254.60 617.97 249.88Q609.50 245.15 604.77 236.53Q600.05 227.90 600.05 216.20L600.05 214.40Q600.05 202.70 604.70 194.07Q609.35 185.45 617.75 180.73Q626.15 176 637.25 176Q648.20 176 656.30 180.88Q664.40 185.75 668.90 194.38Q673.40 203 673.40 214.40L673.40 220.85L619.25 220.85Q619.55 228.50 624.95 233.30Q630.35 238.10 638.15 238.10Q646.10 238.10 649.85 234.65Q653.60 231.20 655.55 227L671 235.10Q668.90 239 664.92 243.57Q660.95 248.15 654.35 251.38Q647.75 254.60 637.55 254.60M619.40 206.75L654.20 206.75Q653.60 200.30 649.02 196.40Q644.45 192.50 637.10 192.50Q629.45 192.50 624.95 196.40Q620.45 200.30 619.40 206.75M717.20 254.60Q708.35 254.60 700.62 250.18Q692.90 245.75 688.25 237.20Q683.60 228.65 683.60 216.50L683.60 214.10Q683.60 201.95 688.25 193.40Q692.90 184.85 700.55 180.43Q708.20 176 717.20 176Q723.95 176 728.52 177.57Q733.10 179.15 735.95 181.55Q738.80 183.95 740.30 186.65L743 186.65L743 147.50L761.90 147.50L761.90 252.50L743.30 252.50L743.30 243.50L740.60 243.50Q738.05 247.70 732.72 251.15Q727.40 254.60 717.20 254.60M722.90 238.10Q731.60 238.10 737.45 232.47Q743.30 226.85 743.30 216.05L743.30 214.55Q743.30 203.75 737.52 198.13Q731.75 192.50 722.90 192.50Q714.20 192.50 708.35 198.13Q702.50 203.75 702.50 214.55L702.50 216.05Q702.50 226.85 708.35 232.47Q714.20 238.10 722.90 238.10M798.80 252.50L779.90 252.50L779.90 178.10L798.80 178.10L798.80 252.50M789.35 169.40Q784.25 169.40 780.72 166.10Q777.20 162.80 777.20 157.40Q777.20 152 780.72 148.70Q784.25 145.40 789.35 145.40Q794.60 145.40 798.05 148.70Q801.50 152 801.50 157.40Q801.50 162.80 798.05 166.10Q794.60 169.40 789.35 169.40M866.30 252.50L845.30 252.50Q837.95 252.50 833.37 247.93Q828.80 243.35 828.80 235.70L828.80 193.70L810.20 193.70L810.20 178.10L828.80 178.10L828.80 155L847.70 155L847.70 178.10L868.10 178.10L868.10 193.70L847.70 193.70L847.70 232.40Q847.70 236.90 851.90 236.90L866.30 236.90L866.30 252.50M956.60 254.60Q937.10 254.60 925.70 243.72Q914.30 232.85 914.30 212.60L914.30 187.40Q914.30 167.15 925.70 156.28Q937.10 145.40 956.60 145.40Q975.95 145.40 986.52 155.98Q997.10 166.55 997.10 185L997.10 185.90L977.60 185.90L977.60 184.40Q977.60 175.10 972.42 169.10Q967.25 163.10 956.60 163.10Q946.10 163.10 940.10 169.55Q934.10 176 934.10 187.10L934.10 212.90Q934.10 223.85 940.10 230.38Q946.10 236.90 956.60 236.90Q967.25 236.90 972.42 230.82Q977.60 224.75 977.60 215.60L977.60 212.90L997.10 212.90L997.10 215Q997.10 233.45 986.52 244.03Q975.95 254.60 956.60 254.60M1034 254.60Q1026.05 254.60 1019.75 251.82Q1013.45 249.05 1009.77 243.72Q1006.10 238.40 1006.10 230.75Q1006.10 223.10 1009.77 217.93Q1013.45 212.75 1019.97 210.13Q1026.50 207.50 1034.90 207.50L1055.30 207.50L1055.30 203.30Q1055.30 198.05 1052 194.68Q1048.70 191.30 1041.50 191.30Q1034.45 191.30 1031 194.53Q1027.55 197.75 1026.50 202.85L1009.10 197Q1010.90 191.30 1014.87 186.57Q1018.85 181.85 1025.52 178.93Q1032.20 176 1041.80 176Q1056.50 176 1065.05 183.35Q1073.60 190.70 1073.60 204.65L1073.60 232.40Q1073.60 236.90 1077.80 236.90L1083.80 236.90L1083.80 252.50L1071.20 252.50Q1065.65 252.50 1062.05 249.80Q1058.45 247.10 1058.45 242.60L1058.45 242.45L1055.60 242.45Q1055 244.25 1052.90 247.18Q1050.80 250.10 1046.30 252.35Q1041.80 254.60 1034 254.60M1037.30 239.30Q1045.25 239.30 1050.27 234.88Q1055.30 230.45 1055.30 223.10L1055.30 221.60L1036.25 221.60Q1031 221.60 1028 223.85Q1025 226.10 1025 230.15Q1025 234.20 1028.15 236.75Q1031.30 239.30 1037.30 239.30M1113.50 252.50L1094.60 252.50L1094.60 178.10L1113.20 178.10L1113.20 186.50L1115.90 186.50Q1117.55 182 1121.37 179.90Q1125.20 177.80 1130.30 177.80L1139.30 177.80L1139.30 194.60L1130 194.60Q1122.80 194.60 1118.15 198.43Q1113.50 202.25 1113.50 210.20L1113.50 252.50M1178.30 254.60Q1169.45 254.60 1161.72 250.18Q1154 245.75 1149.35 237.20Q1144.70 228.65 1144.70 216.50L1144.70 214.10Q1144.70 201.95 1149.35 193.40Q1154 184.85 1161.65 180.43Q1169.30 176 1178.30 176Q1185.05 176 1189.62 177.57Q1194.20 179.15 1197.05 181.55Q1199.90 183.95 1201.40 186.65L1204.10 186.65L1204.10 147.50L1223 147.50L1223 252.50L1204.40 252.50L1204.40 243.50L1201.70 243.50Q1199.15 247.70 1193.82 251.15Q1188.50 254.60 1178.30 254.60M1184 238.10Q1192.70 238.10 1198.55 232.47Q1204.40 226.85 1204.40 216.05L1204.40 214.55Q1204.40 203.75 1198.62 198.13Q1192.85 192.50 1184 192.50Q1175.30 192.50 1169.45 198.13Q1163.60 203.75 1163.60 214.55L1163.60 216.05Q1163.60 226.85 1169.45 232.47Q1175.30 238.10 1184 238.10M1315.40 254.60Q1295.90 254.60 1284.50 243.72Q1273.10 232.85 1273.10 212.60L1273.10 187.40Q1273.10 167.15 1284.50 156.28Q1295.90 145.40 1315.40 145.40Q1334.75 145.40 1345.32 155.98Q1355.90 166.55 1355.90 185L1355.90 185.90L1336.40 185.90L1336.40 184.40Q1336.40 175.10 1331.22 169.10Q1326.05 163.10 1315.40 163.10Q1304.90 163.10 1298.90 169.55Q1292.90 176 1292.90 187.10L1292.90 212.90Q1292.90 223.85 1298.90 230.38Q1304.90 236.90 1315.40 236.90Q1326.05 236.90 1331.22 230.82Q1336.40 224.75 1336.40 215.60L1336.40 212.90L1355.90 212.90L1355.90 215Q1355.90 233.45 1345.32 244.03Q1334.75 254.60 1315.40 254.60M1388.60 252.50L1369.70 252.50L1369.70 147.50L1388.60 147.50L1388.60 187.25L1391.30 187.25Q1392.50 184.85 1395.05 182.45Q1397.60 180.05 1401.87 178.48Q1406.15 176.90 1412.75 176.90Q1421.45 176.90 1427.97 180.88Q1434.50 184.85 1438.10 191.82Q1441.70 198.80 1441.70 208.10L1441.70 252.50L1422.80 252.50L1422.80 209.60Q1422.80 201.20 1418.67 197Q1414.55 192.80 1406.90 192.80Q1398.20 192.80 1393.40 198.57Q1388.60 204.35 1388.60 214.70L1388.60 252.50M1478 252.50L1459.10 252.50L1459.10 178.10L1477.70 178.10L1477.70 186.50L1480.40 186.50Q1482.05 182 1485.87 179.90Q1489.70 177.80 1494.80 177.80L1503.80 177.80L1503.80 194.60L1494.50 194.60Q1487.30 194.60 1482.65 198.43Q1478 202.25 1478 210.20L1478 252.50M1534.40 252.50L1515.50 252.50L1515.50 178.10L1534.40 178.10L1534.40 252.50M1524.95 169.40Q1519.85 169.40 1516.32 166.10Q1512.80 162.80 1512.80 157.40Q1512.80 152 1516.32 148.70Q1519.85 145.40 1524.95 145.40Q1530.20 145.40 1533.65 148.70Q1537.10 152 1537.10 157.40Q1537.10 162.80 1533.65 166.10Q1530.20 169.40 1524.95 169.40M1583.30 254.60Q1568.75 254.60 1559.45 248.30Q1550.15 242 1548.20 230.30L1565.60 225.80Q1566.65 231.05 1569.12 234.05Q1571.60 237.05 1575.27 238.32Q1578.95 239.60 1583.30 239.60Q1589.90 239.60 1593.05 237.28Q1596.20 234.95 1596.20 231.50Q1596.20 228.05 1593.20 226.18Q1590.20 224.30 1583.60 223.10L1579.40 222.35Q1571.60 220.85 1565.15 218.22Q1558.70 215.60 1554.80 210.95Q1550.90 206.30 1550.90 198.95Q1550.90 187.85 1559 181.93Q1567.10 176 1580.30 176Q1592.75 176 1601 181.55Q1609.25 187.10 1611.80 196.10L1594.25 201.50Q1593.05 195.80 1589.37 193.40Q1585.70 191 1580.30 191Q1574.90 191 1572.05 192.88Q1569.20 194.75 1569.20 198.05Q1569.20 201.65 1572.20 203.38Q1575.20 205.10 1580.30 206L1584.50 206.75Q1592.90 208.25 1599.72 210.72Q1606.55 213.20 1610.52 217.78Q1614.50 222.35 1614.50 230.15Q1614.50 241.85 1606.02 248.22Q1597.55 254.60 1583.30 254.60" fill="#d4621a"/>
</svg>